<mxfile host="app.diagrams.net" modified="2023-04-27T06:08:45.172Z" agent="Mozilla/5.0 (Windows NT 10.0; Win64; x64) AppleWebKit/537.36 (KHTML, like Gecko) Chrome/112.0.0.0 Safari/537.36" etag="rY4KdmV1jlJ2X-TENJgJ" version="21.2.2" type="github">
  <diagram name="第 1 页" id="vPbwYGHX77077JAkEawL">
    <mxGraphModel dx="658" dy="397" grid="1" gridSize="10" guides="1" tooltips="1" connect="0" arrows="0" fold="1" page="1" pageScale="1" pageWidth="827" pageHeight="1169" math="0" shadow="0">
      <root>
        <mxCell id="0" />
        <mxCell id="1" parent="0" />
        <mxCell id="hwsEPWj113s3e0ODQFJ4-2" value="" style="rounded=0;whiteSpace=wrap;html=1;fillColor=#d5e8d4;strokeColor=#82b366;" vertex="1" parent="1">
          <mxGeometry x="120" y="40" width="20" height="40" as="geometry" />
        </mxCell>
        <mxCell id="hwsEPWj113s3e0ODQFJ4-3" value="" style="rounded=0;whiteSpace=wrap;html=1;fillColor=#f8cecc;strokeColor=#b85450;" vertex="1" parent="1">
          <mxGeometry x="400" y="40" width="80" height="40" as="geometry" />
        </mxCell>
        <mxCell id="hwsEPWj113s3e0ODQFJ4-4" value="" style="rounded=0;whiteSpace=wrap;html=1;fillColor=#ffe6cc;strokeColor=#d79b00;" vertex="1" parent="1">
          <mxGeometry x="240" y="40" width="60" height="40" as="geometry" />
        </mxCell>
        <mxCell id="hwsEPWj113s3e0ODQFJ4-5" value="二进制：" style="text;html=1;align=center;verticalAlign=middle;resizable=0;points=[];autosize=1;strokeColor=none;fillColor=none;" vertex="1" parent="1">
          <mxGeometry x="45" y="250" width="70" height="30" as="geometry" />
        </mxCell>
        <mxCell id="hwsEPWj113s3e0ODQFJ4-6" value="十进制：" style="text;html=1;align=center;verticalAlign=middle;resizable=0;points=[];autosize=1;strokeColor=none;fillColor=none;" vertex="1" parent="1">
          <mxGeometry x="45" y="130" width="70" height="30" as="geometry" />
        </mxCell>
        <mxCell id="hwsEPWj113s3e0ODQFJ4-7" value="八进制：" style="text;html=1;align=center;verticalAlign=middle;resizable=0;points=[];autosize=1;strokeColor=none;fillColor=none;" vertex="1" parent="1">
          <mxGeometry x="45" y="370" width="70" height="30" as="geometry" />
        </mxCell>
        <mxCell id="hwsEPWj113s3e0ODQFJ4-9" value="二进制基数" style="text;html=1;align=center;verticalAlign=middle;resizable=0;points=[];autosize=1;strokeColor=none;fillColor=none;" vertex="1" parent="1">
          <mxGeometry x="40" y="45" width="80" height="30" as="geometry" />
        </mxCell>
        <mxCell id="hwsEPWj113s3e0ODQFJ4-10" value="十进制基数" style="text;html=1;align=center;verticalAlign=middle;resizable=0;points=[];autosize=1;strokeColor=none;fillColor=none;" vertex="1" parent="1">
          <mxGeometry x="320" y="45" width="80" height="30" as="geometry" />
        </mxCell>
        <mxCell id="hwsEPWj113s3e0ODQFJ4-11" value="八进制基数" style="text;html=1;align=center;verticalAlign=middle;resizable=0;points=[];autosize=1;strokeColor=none;fillColor=none;" vertex="1" parent="1">
          <mxGeometry x="160" y="45" width="80" height="30" as="geometry" />
        </mxCell>
        <mxCell id="hwsEPWj113s3e0ODQFJ4-18" value="" style="rounded=0;whiteSpace=wrap;html=1;fillColor=#f8cecc;strokeColor=#b85450;" vertex="1" parent="1">
          <mxGeometry x="120" y="160" width="80" height="40" as="geometry" />
        </mxCell>
        <mxCell id="hwsEPWj113s3e0ODQFJ4-20" value="3" style="rounded=0;whiteSpace=wrap;html=1;fillColor=#f5f5f5;fontColor=#333333;strokeColor=#666666;" vertex="1" parent="1">
          <mxGeometry x="200" y="160" width="30" height="40" as="geometry" />
        </mxCell>
        <mxCell id="hwsEPWj113s3e0ODQFJ4-21" value="每个进制的数字只能由基数的n次方和小于基数的数组成，以十进制数字13为例，如下所示：" style="text;html=1;align=center;verticalAlign=middle;resizable=0;points=[];autosize=1;strokeColor=none;fillColor=none;" vertex="1" parent="1">
          <mxGeometry x="45" y="90" width="510" height="30" as="geometry" />
        </mxCell>
        <mxCell id="hwsEPWj113s3e0ODQFJ4-24" value="" style="rounded=0;whiteSpace=wrap;html=1;fillColor=#d5e8d4;strokeColor=#82b366;" vertex="1" parent="1">
          <mxGeometry x="120" y="280" width="20" height="40" as="geometry" />
        </mxCell>
        <mxCell id="hwsEPWj113s3e0ODQFJ4-25" value="" style="rounded=0;whiteSpace=wrap;html=1;fillColor=#d5e8d4;strokeColor=#82b366;" vertex="1" parent="1">
          <mxGeometry x="140" y="280" width="20" height="40" as="geometry" />
        </mxCell>
        <mxCell id="hwsEPWj113s3e0ODQFJ4-26" value="" style="rounded=0;whiteSpace=wrap;html=1;fillColor=#d5e8d4;strokeColor=#82b366;" vertex="1" parent="1">
          <mxGeometry x="160" y="280" width="20" height="40" as="geometry" />
        </mxCell>
        <mxCell id="hwsEPWj113s3e0ODQFJ4-27" value="" style="rounded=0;whiteSpace=wrap;html=1;fillColor=#d5e8d4;strokeColor=#82b366;" vertex="1" parent="1">
          <mxGeometry x="180" y="280" width="20" height="40" as="geometry" />
        </mxCell>
        <mxCell id="hwsEPWj113s3e0ODQFJ4-28" value="" style="rounded=0;whiteSpace=wrap;html=1;fillColor=#d5e8d4;strokeColor=#82b366;" vertex="1" parent="1">
          <mxGeometry x="200" y="280" width="20" height="40" as="geometry" />
        </mxCell>
        <mxCell id="hwsEPWj113s3e0ODQFJ4-30" value="1" style="rounded=0;whiteSpace=wrap;html=1;fillColor=#f5f5f5;fontColor=#333333;strokeColor=#666666;" vertex="1" parent="1">
          <mxGeometry x="220" y="280" width="10" height="40" as="geometry" />
        </mxCell>
        <mxCell id="hwsEPWj113s3e0ODQFJ4-31" value="" style="rounded=0;whiteSpace=wrap;html=1;fillColor=#ffe6cc;strokeColor=#d79b00;" vertex="1" parent="1">
          <mxGeometry x="120" y="400" width="60" height="40" as="geometry" />
        </mxCell>
        <mxCell id="hwsEPWj113s3e0ODQFJ4-32" value="5" style="rounded=0;whiteSpace=wrap;html=1;fillColor=#f5f5f5;fontColor=#333333;strokeColor=#666666;" vertex="1" parent="1">
          <mxGeometry x="180" y="400" width="50" height="40" as="geometry" />
        </mxCell>
        <mxCell id="hwsEPWj113s3e0ODQFJ4-43" value="1 * 10&lt;sup&gt;1&lt;/sup&gt; + 3 = 13" style="text;html=1;align=center;verticalAlign=middle;resizable=0;points=[];autosize=1;strokeColor=none;fillColor=none;" vertex="1" parent="1">
          <mxGeometry x="120" y="210" width="110" height="30" as="geometry" />
        </mxCell>
        <mxCell id="hwsEPWj113s3e0ODQFJ4-44" value="1 * 2&lt;sup&gt;3&lt;/sup&gt; + 1 * 2&lt;sup&gt;2&lt;/sup&gt; + 0 * 2&lt;sup&gt;1&lt;/sup&gt; + 1 * 2&lt;sup&gt;0&lt;/sup&gt; = 1101" style="text;html=1;align=center;verticalAlign=middle;resizable=0;points=[];autosize=1;strokeColor=none;fillColor=none;" vertex="1" parent="1">
          <mxGeometry x="70" y="330" width="230" height="30" as="geometry" />
        </mxCell>
        <mxCell id="hwsEPWj113s3e0ODQFJ4-45" value="1 * 8 + 5 * 8 = 15" style="text;html=1;align=center;verticalAlign=middle;resizable=0;points=[];autosize=1;strokeColor=none;fillColor=none;" vertex="1" parent="1">
          <mxGeometry x="120" y="450" width="110" height="30" as="geometry" />
        </mxCell>
      </root>
    </mxGraphModel>
  </diagram>
</mxfile>
